<svg width="51" height="25" viewBox="0 0 51 25" version="1.1" xmlns="http://www.w3.org/2000/svg"><g id="Symbols" stroke="none" stroke-width="1" fill="none" fill-rule="evenodd"><g id="Organism-/-Top-Nav" transform="translate(0 -10)" fill="#16384F"><g id="Atom-/-Header-/-Logo" transform="translate(0 10)"><path id="Fill-1" d="M28.72 23.635h4.918V.8H28.72z"/><path id="Fill-2" d="M19.019 12.41v11.224h4.919V7.48z"/><path d="M9.182.8v15.543c0 1.095-.28 1.929-.837 2.499-.558.57-1.315.855-2.271.855a4.544 4.544 0 01-2.033-.461 4.508 4.508 0 01-.735-.462L0 22.087c1.664 1.44 3.812 2.164 6.45 2.164a9.933 9.933 0 002.988-.445 7.16 7.16 0 002.51-1.37c.73-.616 1.31-1.403 1.743-2.361.432-.96.649-2.09.649-3.39V.8H9.182z" id="Fill-3"/><path d="M47.742 19.802c-.1.053-.2.104-.303.152-.364.171-.797.258-1.298.258-.66 0-1.145-.212-1.451-.634-.308-.422-.463-1.022-.463-1.798V9.941h4.134V6.072h-4.134V.8H39.31v5.272h-2.527v3.87h2.527v7.565c0 1.005.102 1.917.308 2.739.205.82.546 1.523 1.025 2.105.478.581 1.104 1.038 1.878 1.369.774.332 1.73.497 2.87.497 1.79 0 3.447-.597 4.973-1.787l-2.621-2.628z" id="Fill-5"/><path id="Fill-7" d="M19.02.8v6.712l4.918-4.93V.8z"/></g></g></g></svg>